<?xml version="1.0" standalone="no"?>
<!DOCTYPE svg PUBLIC "-//W3C//DTD SVG 20010904//EN"
 "http://www.w3.org/TR/2001/REC-SVG-20010904/DTD/svg10.dtd">
<svg version="1.0" xmlns="http://www.w3.org/2000/svg"
 width="1920.000000pt" height="1920.000000pt" viewBox="0 0 1920.000000 1920.000000"
 preserveAspectRatio="xMidYMid meet">
<metadata>
Created by potrace 1.14, written by Peter Selinger 2001-2017
</metadata>
<g transform="translate(0.000000,1920.000000) scale(0.100000,-0.100000)"
fill="#000000" stroke="none">
<path d="M3283 13532 l-2682 -2 0 -3930 0 -3930 4282 0 4282 0 15 23 c8 12 20
31 26 42 269 477 620 1083 625 1079 6 -3 46 -69 84 -139 6 -11 130 -227 275
-480 145 -253 271 -473 280 -490 l17 -30 3044 -3 3045 -2 0 2750 -1 2750 1010
2 1010 3 0 1170 0 1170 -2430 5 c-1336 2 -3158 4 -4048 5 l-1619 0 -26 -47
c-38 -67 -277 -477 -319 -546 -12 -20 -28 -48 -35 -62 -7 -14 -41 -72 -75
-129 -35 -57 -63 -105 -63 -106 0 -1 -33 -60 -74 -129 l-74 -127 -19 28 c-11
15 -95 159 -188 318 -175 301 -249 429 -265 455 -5 8 -53 90 -106 183 l-98
167 -810 1 c-446 0 -1164 1 -1596 2 -432 1 -1992 1 -3467 -1z m3981 -2335 c10
-17 28 -50 40 -72 12 -22 132 -231 266 -465 134 -234 252 -441 263 -460 10
-19 31 -55 45 -80 15 -25 20 -40 12 -34 -23 19 -265 118 -370 152 -212 70
-493 134 -685 157 -27 4 -61 8 -75 11 -14 2 -59 6 -100 9 -41 4 -86 9 -100 12
-14 3 -695 6 -1515 7 l-1490 3 -3 396 -2 397 1847 0 1848 0 19 -33z m6436
-2769 c0 -2272 -2 -2739 -13 -2723 -8 11 -52 88 -99 170 -47 83 -193 339 -325
570 -132 231 -251 440 -265 465 -14 25 -35 61 -46 80 -11 19 -29 51 -40 70
-20 37 -242 425 -602 1055 -119 209 -232 407 -250 440 -18 33 -41 72 -51 87
-11 14 -19 28 -19 31 0 3 -20 40 -45 81 -25 42 -45 78 -45 80 0 2 -30 55 -66
117 -37 63 -80 139 -96 169 -17 30 -38 66 -47 80 -9 14 -23 39 -31 55 -8 17
-22 41 -31 55 -27 42 -159 277 -159 283 0 5 54 103 133 240 11 18 60 104 109
192 50 88 98 171 107 185 8 14 23 39 32 55 9 17 27 49 40 72 13 23 125 219
249 437 l225 395 667 1 668 0 0 -2742z m-8515 162 c50 -23 134 -78 169 -110
145 -132 146 -453 1 -584 -56 -51 -158 -106 -225 -122 -19 -4 -385 -8 -812 -9
l-778 -1 0 421 0 421 808 -1 c672 -1 812 -3 837 -15z"/>
</g>
</svg>
